<?xml version="1.0" encoding="UTF-8"?>
<!DOCTYPE svg PUBLIC "-//W3C//DTD SVG 1.1//EN" "http://www.w3.org/Graphics/SVG/1.1/DTD/svg11.dtd">
<!-- Creator: CorelDRAW 2019 (64-Bit) -->
<svg xmlns="http://www.w3.org/2000/svg" xml:space="preserve" width="3.04161in" height="0.865539in" version="1.1" style="shape-rendering:geometricPrecision; text-rendering:geometricPrecision; image-rendering:optimizeQuality; fill-rule:evenodd; clip-rule:evenodd"
viewBox="0 0 3036 863.94"
 xmlns:xlink="http://www.w3.org/1999/xlink">
 <defs>
  <style type="text/css">
   <![CDATA[
    .str0 {stroke:black;stroke-width:2.99;stroke-miterlimit:2.61313}
    .fil2 {fill:#ED5B1D}
    .fil0 {fill:black;fill-rule:nonzero}
    .fil1 {fill:#1E4187;fill-rule:nonzero}
   ]]>
  </style>
 </defs>
 <g id="Layer_x0020_1">
  <metadata id="CorelCorpID_0Corel-Layer"/>
  <g id="_5780847600">
   <path class="fil0 str0" d="M42.23 861.68l0 -77.95 32.5 0c3.44,0 6.6,0.72 9.49,2.14 2.89,1.43 5.38,3.33 7.47,5.71 2.09,2.38 3.71,5.05 4.88,8.01 1.17,2.96 1.76,5.99 1.76,9.06 0,3.22 -0.55,6.33 -1.65,9.33 -1.1,3 -2.65,5.67 -4.66,8.02 -2.02,2.34 -4.43,4.21 -7.25,5.6 -2.82,1.39 -5.95,2.08 -9.39,2.08l-23.27 0 0 28 -9.88 0zm9.88 -36.78l22.73 0c2.05,0 3.89,-0.42 5.54,-1.26 1.65,-0.84 3.06,-2.01 4.23,-3.51 1.17,-1.5 2.09,-3.24 2.74,-5.21 0.66,-1.98 0.99,-4.06 0.99,-6.26 0,-2.27 -0.39,-4.39 -1.16,-6.37 -0.77,-1.98 -1.79,-3.7 -3.07,-5.16 -1.28,-1.47 -2.78,-2.6 -4.5,-3.4 -1.72,-0.81 -3.53,-1.21 -5.43,-1.21l-22.07 0 0 32.39zm120.64 37.33c-5.49,0 -10.48,-1.12 -14.98,-3.35 -4.5,-2.23 -8.36,-5.2 -11.58,-8.89 -3.22,-3.7 -5.71,-7.92 -7.46,-12.68 -1.76,-4.75 -2.64,-9.62 -2.64,-14.6 0,-5.2 0.94,-10.17 2.8,-14.93 1.87,-4.75 4.44,-8.96 7.74,-12.62 3.29,-3.66 7.19,-6.57 11.69,-8.73 4.5,-2.16 9.39,-3.24 14.66,-3.24 5.49,0 10.46,1.15 14.93,3.46 4.46,2.3 8.31,5.32 11.53,9.05 3.22,3.73 5.71,7.96 7.47,12.68 1.76,4.72 2.64,9.53 2.64,14.44 0,5.2 -0.94,10.17 -2.8,14.93 -1.87,4.76 -4.43,8.95 -7.68,12.57 -3.26,3.62 -7.14,6.51 -11.64,8.67 -4.5,2.16 -9.38,3.24 -14.65,3.24zm-26.68 -39.52c0,3.95 0.64,7.78 1.92,11.47 1.28,3.7 3.09,6.97 5.43,9.82 2.34,2.86 5.16,5.12 8.45,6.81 3.29,1.69 6.96,2.53 10.98,2.53 4.17,0 7.9,-0.9 11.2,-2.69 3.29,-1.79 6.1,-4.13 8.4,-7.02 2.3,-2.89 4.06,-6.17 5.27,-9.83 1.21,-3.66 1.81,-7.35 1.81,-11.09 0,-3.95 -0.64,-7.78 -1.92,-11.47 -1.28,-3.69 -3.11,-6.95 -5.49,-9.77 -2.38,-2.82 -5.2,-5.07 -8.45,-6.75 -3.26,-1.68 -6.86,-2.52 -10.81,-2.52 -4.17,0 -7.9,0.88 -11.2,2.63 -3.29,1.76 -6.09,4.06 -8.4,6.92 -2.3,2.85 -4.08,6.11 -5.32,9.77 -1.24,3.66 -1.86,7.39 -1.86,11.2zm133.37 -38.54l9.33 0 10.32 27.12 10.43 -27.12 9.33 0 -13.5 33.92 13.39 32.17 26.35 -66.53 10.76 0 -32.61 77.95 -8.56 0 -15.48 -36.78 -15.59 36.78 -8.56 0 -32.5 -77.95 10.65 0 26.46 66.53 13.28 -32.17 -13.5 -33.92zm170.04 68.72l0 8.78 -52.91 0 0 -77.95 51.92 0 0 8.78 -42.04 0 0 25.25 36.55 0 0 8.23 -36.55 0 0 26.9 43.03 0zm44.56 8.78l0 -77.95 33.37 0c3.44,0 6.61,0.72 9.5,2.14 2.89,1.43 5.38,3.33 7.46,5.71 2.09,2.38 3.71,5.05 4.88,8.01 1.17,2.96 1.76,5.99 1.76,9.06 0,2.71 -0.38,5.32 -1.15,7.85 -0.77,2.53 -1.87,4.81 -3.29,6.86 -1.43,2.05 -3.15,3.81 -5.16,5.27 -2.01,1.47 -4.26,2.53 -6.75,3.18l18.88 29.86 -11.2 0 -17.78 -28 -20.64 0 0 28 -9.88 0zm9.88 -36.78l23.6 0c2.05,0 3.9,-0.44 5.54,-1.32 1.65,-0.88 3.05,-2.07 4.22,-3.57 1.17,-1.5 2.09,-3.24 2.75,-5.21 0.66,-1.98 0.99,-4.02 0.99,-6.15 0,-2.2 -0.39,-4.26 -1.15,-6.2 -0.77,-1.94 -1.79,-3.66 -3.07,-5.16 -1.28,-1.5 -2.78,-2.67 -4.5,-3.51 -1.72,-0.84 -3.53,-1.27 -5.43,-1.27l-22.94 0 0 32.39zm146.44 28l0 8.78 -52.91 0 0 -77.95 51.92 0 0 8.78 -42.04 0 0 25.25 36.55 0 0 8.23 -36.55 0 0 26.9 43.03 0zm44.56 8.78l0 -77.95 27.01 0c6.22,0 11.69,1.03 16.41,3.08 4.72,2.05 8.66,4.83 11.8,8.34 3.15,3.51 5.51,7.63 7.08,12.35 1.58,4.72 2.36,9.75 2.36,15.09 0,5.93 -0.88,11.29 -2.64,16.08 -1.76,4.79 -4.28,8.89 -7.57,12.3 -3.29,3.4 -7.27,6.04 -11.91,7.91 -4.65,1.87 -9.83,2.8 -15.53,2.8l-27.01 0zm54.67 -39.08c0,-4.39 -0.61,-8.44 -1.81,-12.13 -1.21,-3.7 -3,-6.86 -5.38,-9.5 -2.38,-2.63 -5.29,-4.7 -8.73,-6.2 -3.44,-1.5 -7.36,-2.25 -11.75,-2.25l-17.13 0 0 60.38 17.13 0c4.46,0 8.43,-0.77 11.91,-2.31 3.48,-1.54 6.37,-3.66 8.67,-6.37 2.3,-2.71 4.06,-5.91 5.27,-9.6 1.21,-3.7 1.81,-7.7 1.81,-12.02zm142.04 18.99c0,3 -0.61,5.75 -1.81,8.23 -1.21,2.49 -2.86,4.61 -4.94,6.37 -2.09,1.76 -4.5,3.11 -7.25,4.06 -2.75,0.95 -5.69,1.43 -8.84,1.43l-36.99 0 0 -77.95 38.75 0c2.71,0 5.16,0.59 7.36,1.76 2.19,1.17 4.06,2.69 5.6,4.56 1.54,1.87 2.73,3.99 3.57,6.37 0.84,2.38 1.27,4.77 1.27,7.19 0,3.88 -0.97,7.47 -2.91,10.76 -1.94,3.29 -4.7,5.75 -8.29,7.35 4.46,1.32 8,3.75 10.59,7.3 2.6,3.55 3.9,7.74 3.9,12.57zm-9.99 -1.76c0,-1.76 -0.31,-3.46 -0.94,-5.1 -0.62,-1.65 -1.46,-3.09 -2.52,-4.34 -1.06,-1.24 -2.33,-2.23 -3.79,-2.96 -1.47,-0.73 -3.07,-1.1 -4.83,-1.1l-27.89 0 0 26.79 27.12 0c1.83,0 3.51,-0.37 5.05,-1.1 1.54,-0.73 2.89,-1.7 4.06,-2.91 1.17,-1.21 2.08,-2.61 2.74,-4.22 0.66,-1.61 0.99,-3.29 0.99,-5.05zm-39.96 -47.54l0 26.02 24.81 0c1.76,0 3.37,-0.35 4.83,-1.04 1.46,-0.7 2.72,-1.63 3.78,-2.8 1.06,-1.17 1.91,-2.55 2.53,-4.12 0.62,-1.57 0.93,-3.24 0.93,-4.99 0,-1.83 -0.29,-3.55 -0.88,-5.16 -0.59,-1.61 -1.37,-3 -2.36,-4.17 -0.99,-1.17 -2.2,-2.09 -3.62,-2.74 -1.43,-0.66 -2.94,-0.99 -4.55,-0.99l-25.47 0zm93.19 -8.56l23.61 40.62 23.82 -40.62 10.76 0 -29.64 49.51 0 28.43 -9.88 0 0 -28.65 -29.53 -49.29 10.87 0zm167.85 16.36c-0.88,-1.03 -2.05,-2.01 -3.51,-2.96 -1.47,-0.95 -3.11,-1.81 -4.94,-2.58 -1.83,-0.77 -3.82,-1.39 -5.99,-1.87 -2.16,-0.48 -4.41,-0.71 -6.75,-0.71 -6.08,0 -10.52,1.13 -13.34,3.4 -2.82,2.27 -4.23,5.38 -4.23,9.33 0,2.12 0.4,3.88 1.21,5.27 0.8,1.39 2.07,2.58 3.78,3.57 1.72,0.99 3.86,1.85 6.43,2.58 2.56,0.73 5.6,1.5 9.11,2.3 4.03,0.88 7.67,1.89 10.92,3.02 3.26,1.14 6.04,2.55 8.34,4.23 2.31,1.68 4.06,3.73 5.27,6.15 1.21,2.42 1.81,5.38 1.81,8.89 0,3.73 -0.73,6.97 -2.2,9.72 -1.46,2.74 -3.46,5.01 -5.98,6.81 -2.53,1.79 -5.51,3.11 -8.95,3.95 -3.44,0.84 -7.17,1.27 -11.2,1.27 -6,0 -11.69,-0.94 -17.07,-2.8 -5.38,-1.87 -10.26,-4.59 -14.65,-8.18l4.72 -8.34c1.17,1.24 2.69,2.49 4.56,3.73 1.87,1.24 3.99,2.36 6.37,3.35 2.38,0.99 4.94,1.79 7.68,2.41 2.75,0.62 5.62,0.94 8.62,0.94 5.56,0 9.88,-0.99 12.96,-2.97 3.07,-1.97 4.61,-4.94 4.61,-8.89 0,-2.2 -0.5,-4.04 -1.48,-5.54 -0.99,-1.5 -2.43,-2.8 -4.33,-3.9 -1.91,-1.1 -4.26,-2.07 -7.08,-2.91 -2.82,-0.84 -6.02,-1.7 -9.61,-2.58 -3.95,-0.95 -7.43,-1.97 -10.43,-3.07 -3,-1.1 -5.51,-2.41 -7.52,-3.95 -2.01,-1.54 -3.53,-3.4 -4.56,-5.6 -1.02,-2.2 -1.54,-4.83 -1.54,-7.91 0,-3.73 0.7,-7.03 2.09,-9.88 1.39,-2.85 3.33,-5.27 5.82,-7.25 2.49,-1.98 5.45,-3.46 8.89,-4.44 3.44,-0.99 7.18,-1.48 11.2,-1.48 5.27,0 10.02,0.81 14.27,2.41 4.24,1.61 8.01,3.77 11.31,6.48l-4.61 8.01zm83.64 62.14c-5.49,0 -10.48,-1.12 -14.98,-3.35 -4.5,-2.23 -8.36,-5.2 -11.58,-8.89 -3.22,-3.7 -5.71,-7.92 -7.46,-12.68 -1.76,-4.75 -2.64,-9.62 -2.64,-14.6 0,-5.2 0.94,-10.17 2.8,-14.93 1.87,-4.75 4.44,-8.96 7.74,-12.62 3.29,-3.66 7.19,-6.57 11.69,-8.73 4.5,-2.16 9.39,-3.24 14.66,-3.24 5.49,0 10.46,1.15 14.93,3.46 4.46,2.3 8.31,5.32 11.53,9.05 3.22,3.73 5.71,7.96 7.47,12.68 1.76,4.72 2.64,9.53 2.64,14.44 0,5.2 -0.94,10.17 -2.8,14.93 -1.87,4.76 -4.43,8.95 -7.68,12.57 -3.26,3.62 -7.14,6.51 -11.64,8.67 -4.5,2.16 -9.38,3.24 -14.65,3.24zm-26.68 -39.52c0,3.95 0.64,7.78 1.92,11.47 1.28,3.7 3.09,6.97 5.43,9.82 2.34,2.86 5.16,5.12 8.45,6.81 3.29,1.69 6.96,2.53 10.98,2.53 4.17,0 7.9,-0.9 11.2,-2.69 3.29,-1.79 6.1,-4.13 8.4,-7.02 2.3,-2.89 4.06,-6.17 5.27,-9.83 1.21,-3.66 1.81,-7.35 1.81,-11.09 0,-3.95 -0.64,-7.78 -1.92,-11.47 -1.28,-3.69 -3.11,-6.95 -5.49,-9.77 -2.38,-2.82 -5.2,-5.07 -8.45,-6.75 -3.26,-1.68 -6.86,-2.52 -10.81,-2.52 -4.17,0 -7.9,0.88 -11.2,2.63 -3.29,1.76 -6.09,4.06 -8.4,6.92 -2.3,2.85 -4.08,6.11 -5.32,9.77 -1.24,3.66 -1.86,7.39 -1.86,11.2zm102.85 -0.55c0,-4.68 0.83,-9.35 2.47,-14 1.65,-4.64 4.06,-8.82 7.25,-12.52 3.18,-3.69 7.08,-6.68 11.69,-8.94 4.61,-2.27 9.84,-3.4 15.7,-3.4 6.95,0 12.92,1.57 17.89,4.72 4.98,3.15 8.67,7.25 11.09,12.3l-7.8 5.05c-1.17,-2.49 -2.58,-4.57 -4.22,-6.26 -1.65,-1.68 -3.44,-3.03 -5.38,-4.06 -1.94,-1.03 -3.93,-1.76 -5.98,-2.2 -2.05,-0.44 -4.06,-0.66 -6.04,-0.66 -4.32,0 -8.14,0.9 -11.47,2.69 -3.33,1.79 -6.13,4.13 -8.4,7.03 -2.27,2.89 -3.97,6.15 -5.1,9.77 -1.14,3.62 -1.7,7.27 -1.7,10.92 0,4.1 0.68,7.99 2.03,11.69 1.36,3.69 3.24,6.97 5.65,9.82 2.42,2.86 5.27,5.12 8.56,6.81 3.29,1.69 6.88,2.53 10.76,2.53 2.05,0 4.15,-0.26 6.31,-0.77 2.16,-0.51 4.23,-1.34 6.21,-2.47 1.97,-1.14 3.82,-2.56 5.54,-4.28 1.72,-1.72 3.13,-3.79 4.23,-6.2l8.23 4.5c-1.25,2.93 -2.98,5.51 -5.21,7.74 -2.23,2.23 -4.75,4.11 -7.57,5.65 -2.82,1.54 -5.8,2.71 -8.95,3.51 -3.15,0.81 -6.22,1.21 -9.22,1.21 -5.34,0 -10.24,-1.17 -14.71,-3.51 -4.46,-2.34 -8.33,-5.4 -11.58,-9.17 -3.25,-3.77 -5.78,-8.05 -7.57,-12.85 -1.79,-4.79 -2.69,-9.68 -2.69,-14.65zm110.43 39.52l0 -77.84 9.88 0 0 77.84 -9.88 0zm90.88 0.55c-5.49,0 -10.48,-1.12 -14.98,-3.35 -4.5,-2.23 -8.36,-5.2 -11.58,-8.89 -3.22,-3.7 -5.71,-7.92 -7.46,-12.68 -1.76,-4.75 -2.64,-9.62 -2.64,-14.6 0,-5.2 0.94,-10.17 2.8,-14.93 1.87,-4.75 4.44,-8.96 7.74,-12.62 3.29,-3.66 7.19,-6.57 11.69,-8.73 4.5,-2.16 9.39,-3.24 14.66,-3.24 5.49,0 10.46,1.15 14.93,3.46 4.46,2.3 8.31,5.32 11.53,9.05 3.22,3.73 5.71,7.96 7.47,12.68 1.76,4.72 2.64,9.53 2.64,14.44 0,5.2 -0.94,10.17 -2.8,14.93 -1.87,4.76 -4.43,8.95 -7.68,12.57 -3.26,3.62 -7.14,6.51 -11.64,8.67 -4.5,2.16 -9.38,3.24 -14.65,3.24zm-26.68 -39.52c0,3.95 0.64,7.78 1.92,11.47 1.28,3.7 3.09,6.97 5.43,9.82 2.34,2.86 5.16,5.12 8.45,6.81 3.29,1.69 6.96,2.53 10.98,2.53 4.17,0 7.9,-0.9 11.2,-2.69 3.29,-1.79 6.1,-4.13 8.4,-7.02 2.3,-2.89 4.06,-6.17 5.27,-9.83 1.21,-3.66 1.81,-7.35 1.81,-11.09 0,-3.95 -0.64,-7.78 -1.92,-11.47 -1.28,-3.69 -3.11,-6.95 -5.49,-9.77 -2.38,-2.82 -5.2,-5.07 -8.45,-6.75 -3.26,-1.68 -6.86,-2.52 -10.81,-2.52 -4.17,0 -7.9,0.88 -11.2,2.63 -3.29,1.76 -6.09,4.06 -8.4,6.92 -2.3,2.85 -4.08,6.11 -5.32,9.77 -1.24,3.66 -1.86,7.39 -1.86,11.2zm102.85 -0.55c0,-4.68 0.83,-9.35 2.47,-14 1.65,-4.64 4.06,-8.82 7.25,-12.52 3.18,-3.69 7.08,-6.68 11.69,-8.94 4.61,-2.27 9.84,-3.4 15.7,-3.4 6.95,0 12.92,1.57 17.89,4.72 4.98,3.15 8.67,7.25 11.09,12.3l-7.8 5.05c-1.17,-2.49 -2.58,-4.57 -4.22,-6.26 -1.65,-1.68 -3.44,-3.03 -5.38,-4.06 -1.94,-1.03 -3.93,-1.76 -5.98,-2.2 -2.05,-0.44 -4.06,-0.66 -6.04,-0.66 -4.32,0 -8.14,0.9 -11.47,2.69 -3.33,1.79 -6.13,4.13 -8.4,7.03 -2.27,2.89 -3.97,6.15 -5.1,9.77 -1.14,3.62 -1.7,7.27 -1.7,10.92 0,4.1 0.68,7.99 2.03,11.69 1.36,3.69 3.24,6.97 5.65,9.82 2.42,2.86 5.27,5.12 8.56,6.81 3.29,1.69 6.88,2.53 10.76,2.53 2.05,0 4.15,-0.26 6.31,-0.77 2.16,-0.51 4.23,-1.34 6.21,-2.47 1.97,-1.14 3.82,-2.56 5.54,-4.28 1.72,-1.72 3.13,-3.79 4.23,-6.2l8.23 4.5c-1.25,2.93 -2.98,5.51 -5.21,7.74 -2.23,2.23 -4.75,4.11 -7.57,5.65 -2.82,1.54 -5.8,2.71 -8.95,3.51 -3.15,0.81 -6.22,1.21 -9.22,1.21 -5.34,0 -10.24,-1.17 -14.71,-3.51 -4.46,-2.34 -8.33,-5.4 -11.58,-9.17 -3.25,-3.77 -5.78,-8.05 -7.57,-12.85 -1.79,-4.79 -2.69,-9.68 -2.69,-14.65zm101.21 39.52l32.06 -77.95 8.12 0 31.94 77.95 -10.54 0 -9.22 -22.84 -32.72 0 -9.11 22.84 -10.54 0zm36.12 -66.53l-14.49 36.01 28.54 0 -14.05 -36.01zm76.95 66.53l0 -77.95 32.5 0c3.44,0 6.6,0.72 9.49,2.14 2.89,1.43 5.38,3.33 7.47,5.71 2.09,2.38 3.71,5.05 4.88,8.01 1.17,2.96 1.76,5.99 1.76,9.06 0,3.22 -0.55,6.33 -1.65,9.33 -1.1,3 -2.65,5.67 -4.66,8.02 -2.02,2.34 -4.43,4.21 -7.25,5.6 -2.82,1.39 -5.95,2.08 -9.39,2.08l-23.27 0 0 28 -9.88 0zm9.88 -36.78l22.73 0c2.05,0 3.89,-0.42 5.54,-1.26 1.65,-0.84 3.06,-2.01 4.23,-3.51 1.17,-1.5 2.09,-3.24 2.74,-5.21 0.66,-1.98 0.99,-4.06 0.99,-6.26 0,-2.27 -0.39,-4.39 -1.16,-6.37 -0.77,-1.98 -1.79,-3.7 -3.07,-5.16 -1.28,-1.47 -2.78,-2.6 -4.5,-3.4 -1.72,-0.81 -3.53,-1.21 -5.43,-1.21l-22.07 0 0 32.39zm88.8 36.78l0 -77.84 9.88 0 0 77.84 -9.88 0zm115.37 -69.16l-26.9 0 0 69.16 -9.88 0 0 -69.16 -26.9 0 0 -8.78 63.67 0 0 8.78zm26 69.16l32.06 -77.95 8.12 0 31.94 77.95 -10.54 0 -9.22 -22.84 -32.72 0 -9.11 22.84 -10.54 0zm36.12 -66.53l-14.49 36.01 28.54 0 -14.05 -36.01zm76.95 66.53l0 -77.95 9.88 0 0 69.16 43.47 0 0 8.78 -53.35 0z"/>
   <g>
    <polygon class="fil1" points="199.34,578.91 299.43,331.91 403.71,331.91 248.96,690.79 143.21,690.79 -0,331.91 107.59,331.91 "/>
    <path class="fil1" d="M626.88 326.76c66.2,0 115.08,19.16 146.65,57.48 28.99,35.01 43.48,78.85 43.48,131.67 0,56 -18.18,100.71 -54.65,133.99 -33.41,30.71 -79.1,46.06 -137.07,46.06 -59.94,0 -106.98,-17.2 -141,-51.46 -31.2,-31.32 -46.8,-76.52 -46.8,-135.47 0,-50.36 14.98,-92.11 44.95,-125.52 33.41,-37.09 81.55,-56.01 144.44,-56.74zm0.61 75.9c-58.83,0 -88.31,36.6 -88.31,109.92 0,29.84 4.79,52.56 14.25,68.04 15.97,26.29 40.9,39.43 74.67,39.43 58.09,0 87.2,-36.35 87.2,-109.19 0,-71.48 -29.23,-107.47 -87.81,-108.2z"/>
    <path class="fil1" d="M1145.31 614.16l0 -282.24 98.75 0 0 358.88 -194.05 0c-28.25,0 -49.99,-2.09 -65.1,-6.14 -15.11,-4.05 -28.62,-11.67 -40.53,-22.6 -25.18,-22.85 -37.83,-59.32 -37.83,-109.44l0 -220.71 98.75 0 0 230.78c0,16.09 4.18,28.62 12.53,37.83 8.35,9.09 19.9,13.64 34.76,13.64l92.73 0z"/>
    <path class="fil1" d="M1660.79 331.91l0 76.64 -118.4 0c-39.3,0 -66.69,8.84 -82.29,26.65 -14.61,16.83 -21.86,42.25 -21.86,76.27 0,38.69 12.04,66.69 35.98,84.01 9.7,7.12 20.39,12.04 31.93,14.74 11.42,2.58 27.51,3.93 48.15,3.93l106.48 0 0 76.64 -134.98 0c-36.23,0 -64.85,-3.69 -85.97,-10.93 -21.12,-7.37 -39.91,-20.26 -56.5,-38.69 -30.7,-34.39 -46.06,-77.99 -46.06,-130.68 0,-63.87 18.42,-111.64 55.39,-143.33 14.61,-12.65 32.3,-21.74 52.93,-27.14 20.64,-5.4 47.41,-8.11 80.2,-8.11l134.98 0z"/>
    <path class="fil1" d="M1842.32 199.27l0 132.64 101.2 0c29.72,0 53.06,2.33 70.13,7 16.95,4.66 31.44,12.89 43.11,24.32 22.35,20.64 33.65,55.27 33.9,104.03l0 223.53 -98.75 0 0 -204.13c0,-19.16 -0.86,-32.92 -2.7,-41.02 -1.72,-8.23 -5.28,-15.11 -10.56,-20.88 -9.82,-10.56 -28.62,-15.97 -56.37,-16.21l-79.95 0 0 282.24 -98.75 0 0 -491.52 98.75 0z"/>
   </g>
   <path class="fil2" d="M2169.42 365.07l525.63 -345.94c53.69,-35.34 126.52,-20.32 161.86,33.37l159.96 243.04c35.34,53.69 20.32,126.53 -33.37,161.86l-525.63 345.94c-53.69,35.34 -126.53,20.32 -161.86,-33.37l-159.95 -243.04c-35.34,-53.69 -20.32,-126.52 33.37,-161.86zm321.98 107.59c0,-25.18 -5.04,-42.25 -15.23,-50.97 -10.19,-8.72 -30.09,-13.14 -59.81,-13.14l-166.67 0 0 -76.64 166.67 0c29.72,0 50.23,0.49 61.65,1.6 11.3,1.11 22.84,3.56 34.27,7.12 54.53,20.64 80.45,69.88 77.87,147.88l0 202.29 -207.94 0c-37.09,0 -62.76,-1.1 -77.01,-3.19 -14.25,-2.21 -26.77,-6.88 -37.46,-14.13 -29.23,-19.65 -43.85,-49.25 -43.85,-88.92 0,-24.2 5.77,-45.69 17.44,-64.6 11.55,-18.79 26.78,-31.56 45.69,-38.32 16.82,-6.02 44.7,-8.97 83.76,-8.97l120.61 0zm0 76.64l-113.85 0 -16.34 0c-11.17,0 -20.02,2.95 -26.53,8.97 -6.51,6.02 -9.82,14 -9.82,23.95 0,11.79 3.93,20.02 11.91,24.81 7.98,4.79 21.62,7.12 40.78,7.12l113.85 0 0 -64.85zm257.67 -306.75l61.15 -40.24c10.17,-6.69 23.96,-3.85 30.65,6.32l30.29 46.03c6.69,10.17 3.85,23.96 -6.32,30.65l-61.15 40.24c-10.17,6.69 -23.96,3.85 -30.65,-6.32l-30.29 -46.03c-6.69,-10.17 -3.86,-23.96 6.32,-30.65z"/>
  </g>
 </g>
</svg>
